<?xml version="1.0" encoding="UTF-8" standalone="no"?>
<svg
   xmlns:dc="http://purl.org/dc/elements/1.1/"
   xmlns:cc="http://creativecommons.org/ns#"
   xmlns:rdf="http://www.w3.org/1999/02/22-rdf-syntax-ns#"
   xmlns:svg="http://www.w3.org/2000/svg"
   xmlns="http://www.w3.org/2000/svg"
   xmlns:sodipodi="http://sodipodi.sourceforge.net/DTD/sodipodi-0.dtd"
   xmlns:inkscape="http://www.inkscape.org/namespaces/inkscape"
   width="146.83702"
   height="55.093369"
   viewBox="0 0 38.850627 14.576786"
   version="1.1"
   id="svg8613"
   inkscape:version="1.0.2 (e86c8708, 2021-01-15)"
   sodipodi:docname="logo.svg">
  <defs
     id="defs8607">
    <clipPath
       id="clipPath8004"
       clipPathUnits="userSpaceOnUse">
      <path
         inkscape:connector-curvature="0"
         id="path8002"
         d="m 22.8,643.45 h 109.377 v 40.57 H 22.8 Z" />
    </clipPath>
    <clipPath
       id="clipPath7952"
       clipPathUnits="userSpaceOnUse">
      <path
         inkscape:connector-curvature="0"
         id="path7950"
         d="m 22.8,643.45 h 109.378 v 40.57 H 22.8 Z" />
    </clipPath>
    <clipPath
       id="clipPath7940"
       clipPathUnits="userSpaceOnUse">
      <path
         inkscape:connector-curvature="0"
         id="path7938"
         d="m 22.8,643.45 h 109.377 v 40.57 H 22.8 Z" />
    </clipPath>
    <clipPath
       id="clipPath7928"
       clipPathUnits="userSpaceOnUse">
      <path
         inkscape:connector-curvature="0"
         id="path7926"
         d="m 22.8,643.45 h 109.378 v 40.57 H 22.8 Z" />
    </clipPath>
    <style
       id="style198">
      .cls-1 {
        fill: url(#linear-gradient);
      }

      .cls-2, .cls-5 {
        fill: none;
      }

      .cls-2 {
        stroke: #6ec177;
        stroke-width: 14px;
      }

      .cls-3 {
        fill: url(#linear-gradient-2);
      }

      .cls-4 {
        stroke: none;
      }

      .cls-6 {
        filter: url(#Rectangle_3);
      }

      .cls-7 {
        filter: url(#Rectangle_2);
      }

      .cls-8 {
        filter: url(#Rectangle_1);
      }
    </style>
    <linearGradient
       id="linear-gradient"
       x1="64.420494"
       x2="64.420494"
       y2="128.84099"
       gradientUnits="userSpaceOnUse"
       gradientTransform="scale(0.64420494,1.5523011)"
       y1="0">
      <stop
         offset="0"
         stop-color="#6ec177"
         id="stop200" />
      <stop
         offset="1"
         stop-color="#2ca43c"
         id="stop202" />
    </linearGradient>
    <filter
       id="Rectangle_1"
       x="117"
       y="0"
       width="101"
       height="218"
       filterUnits="userSpaceOnUse">
      <feOffset
         dy="3"
         input="SourceAlpha"
         id="feOffset205" />
      <feGaussianBlur
         stdDeviation="3"
         result="blur"
         id="feGaussianBlur207" />
      <feFlood
         flood-color="#9b8ffb"
         flood-opacity="0.2"
         id="feFlood209" />
      <feComposite
         operator="in"
         in2="blur"
         id="feComposite211"
         result="result1" />
      <feComposite
         in="SourceGraphic"
         in2="result1"
         id="feComposite213" />
    </filter>
    <filter
       id="Rectangle_2"
       x="0"
       y="0"
       width="101"
       height="101"
       filterUnits="userSpaceOnUse">
      <feOffset
         dy="3"
         input="SourceAlpha"
         id="feOffset216" />
      <feGaussianBlur
         stdDeviation="3"
         result="blur-2"
         id="feGaussianBlur218" />
      <feFlood
         flood-color="#9b8ffb"
         flood-opacity="0.2"
         id="feFlood220" />
      <feComposite
         operator="in"
         in2="blur-2"
         id="feComposite222"
         result="result1" />
      <feComposite
         in="SourceGraphic"
         in2="result1"
         id="feComposite224" />
    </filter>
    <linearGradient
       id="linear-gradient-2"
       x1="45.552168"
       x2="45.552168"
       y2="91.104336"
       gradientUnits="userSpaceOnUse"
       gradientTransform="scale(0.91104336,1.0976426)"
       y1="0">
      <stop
         offset="0"
         stop-color="#feef34"
         id="stop227" />
      <stop
         offset="1"
         stop-color="#fcd635"
         id="stop229" />
    </linearGradient>
    <filter
       id="Rectangle_3"
       x="0"
       y="100"
       width="101"
       height="118"
       filterUnits="userSpaceOnUse">
      <feOffset
         dy="3"
         input="SourceAlpha"
         id="feOffset232" />
      <feGaussianBlur
         stdDeviation="3"
         result="blur-3"
         id="feGaussianBlur234" />
      <feFlood
         flood-color="#feef34"
         flood-opacity="0.2"
         id="feFlood236" />
      <feComposite
         operator="in"
         in2="blur-3"
         id="feComposite238"
         result="result1" />
      <feComposite
         in="SourceGraphic"
         in2="result1"
         id="feComposite240" />
    </filter>
  </defs>
  <sodipodi:namedview
     id="base"
     pagecolor="#ffffff"
     bordercolor="#666666"
     borderopacity="1.0"
     inkscape:pageopacity="0.0"
     inkscape:pageshadow="2"
     inkscape:zoom="6.1507561"
     inkscape:cx="67.390089"
     inkscape:cy="44.449202"
     inkscape:document-units="mm"
     inkscape:current-layer="layer1"
     showgrid="false"
     fit-margin-top="0"
     fit-margin-left="0"
     fit-margin-right="0"
     fit-margin-bottom="0"
     units="px"
     inkscape:window-width="1344"
     inkscape:window-height="795"
     inkscape:window-x="0"
     inkscape:window-y="23"
     inkscape:window-maximized="1"
     inkscape:document-rotation="0" />
  <metadata
     id="metadata8610">
    <rdf:RDF>
      <cc:Work
         rdf:about="">
        <dc:format>image/svg+xml</dc:format>
        <dc:type
           rdf:resource="http://purl.org/dc/dcmitype/StillImage" />
        <dc:title />
      </cc:Work>
    </rdf:RDF>
  </metadata>
  <g
     inkscape:label="Layer 1"
     inkscape:groupmode="layer"
     id="layer1"
     transform="translate(6.8196372,-141.41273)">
    <path
       style="fill:#000000;fill-opacity:0;stroke-width:0.162582"
       d="M 2.5005986,16.870219 C 2.3649148,16.545482 2.3137767,16.220894 2.3869584,16.148913 2.5774877,15.961508 6.5818371,14.349635 9.9142079,13.118966 26.823275,6.8743237 45.51302,2.6426606 62.187477,1.2834453 c 18.631369,-1.51873273 38.387913,0.6579074 59.748753,6.5827061 7.48443,2.0759378 16.35235,5.0926016 22.27805,7.5784826 l 1.77558,0.744875 -0.32424,0.63557 c -0.17833,0.349564 -0.35386,0.635571 -0.39005,0.635571 -0.0362,0 -1.07726,-0.411592 -2.31348,-0.914647 C 137.19318,14.198461 129.21396,11.491067 122.41042,9.5727044 109.64597,5.9735703 97.823762,3.7954171 85.192779,2.7156332 80.971067,2.3547322 67.998255,2.305417 63.975875,2.6349789 50.321378,3.7537201 38.298103,5.9732514 24.595673,9.9046778 18.349463,11.696806 8.9954482,14.925122 4.3946405,16.876584 3.637286,17.197821 2.9568067,17.46065 2.8824643,17.46065 c -0.074342,0 -0.2461819,-0.265694 -0.3818657,-0.590431 z"
       id="path305"
       transform="matrix(0.26458333,0,0,0.26458333,-6.8196372,141.41273)" />
    <path
       style="fill:#000000;fill-opacity:0;stroke-width:0.162582"
       d="M 2.5005986,16.870219 C 2.3649148,16.545482 2.3137767,16.220894 2.3869584,16.148913 2.5774877,15.961508 6.5818371,14.349635 9.9142079,13.118966 26.823275,6.8743237 45.51302,2.6426606 62.187477,1.2834453 c 18.631369,-1.51873273 38.387913,0.6579074 59.748753,6.5827061 7.48443,2.0759378 16.35235,5.0926016 22.27805,7.5784826 l 1.77558,0.744875 -0.32424,0.63557 c -0.17833,0.349564 -0.35386,0.635571 -0.39005,0.635571 -0.0362,0 -1.07726,-0.411592 -2.31348,-0.914647 C 137.19318,14.198461 129.21396,11.491067 122.41042,9.5727044 109.64597,5.9735703 97.823762,3.7954171 85.192779,2.7156332 80.971067,2.3547322 67.998255,2.305417 63.975875,2.6349789 50.321378,3.7537201 38.298103,5.9732514 24.595673,9.9046778 18.349463,11.696806 8.9954482,14.925122 4.3946405,16.876584 3.637286,17.197821 2.9568067,17.46065 2.8824643,17.46065 c -0.074342,0 -0.2461819,-0.265694 -0.3818657,-0.590431 z"
       id="path307"
       transform="matrix(0.26458333,0,0,0.26458333,-6.8196372,141.41273)" />
    <path
       style="fill:#fbe52e;fill-opacity:1;stroke-width:0.0430165"
       d="m -6.4290888,146.1624 c -0.0359,-0.0859 -0.04943,-0.1718 -0.030067,-0.19085 0.050411,-0.0496 1.1098949,-0.47606 1.9915847,-0.80167 4.4738573,-1.65223 9.4188522,-2.77186 13.8306356,-3.13148 4.9295495,-0.40183 10.1568015,0.17407 15.8085235,1.74167 1.980255,0.54926 4.326559,1.34742 5.894401,2.00514 l 0.469788,0.19708 -0.08579,0.16817 c -0.04718,0.0925 -0.09363,0.16816 -0.103201,0.16816 -0.0096,0 -0.285025,-0.1089 -0.612108,-0.242 -1.526357,-0.62112 -3.637526,-1.33746 -5.437629,-1.84502 -3.377261,-0.95227 -6.50522,-1.52858 -9.847168,-1.81427 -1.116994,-0.0955 -4.549384,-0.10854 -5.6136387,-0.0213 -3.6127518,0.296 -6.7939099,0.88325 -10.41934443,1.92344 -1.65264307,0.47417 -4.12755947,1.32833 -5.34485647,1.84465 -0.2003834,0.085 -0.3804269,0.15454 -0.4000966,0.15454 -0.01967,0 -0.065136,-0.0703 -0.1010353,-0.15622 z"
       id="path309" />
    <path
       style="fill:#6dc076;fill-opacity:1;stroke-width:0.0430165"
       d="m -3.9346804,155.6376 c -0.4247081,-0.0752 -0.7956488,-0.22641 -0.8668773,-0.35334 -0.048387,-0.0862 -0.053424,-0.13527 -0.01943,-0.18918 0.098456,-0.15613 0.168423,-0.16181 0.5282991,-0.0429 0.4181166,0.13819 1.0062294,0.15783 1.386002,0.0463 0.8156404,-0.23958 1.4406353,-0.91515 1.5854037,-1.7137 0.052461,-0.28938 0.063176,-1.22898 0.01401,-1.22853 -0.017743,1.7e-4 -0.079501,0.0696 -0.1372369,0.15442 -0.1595142,0.23419 -0.5417732,0.55544 -0.858496,0.72147 -0.7610527,0.39896 -1.5892426,0.40688 -2.3702997,0.0227 -0.4895664,-0.24083 -0.9824581,-0.72831 -1.2158131,-1.20246 -0.4368277,-0.8876 -0.4443747,-1.82004 -0.02191,-2.70754 0.235019,-0.49373 0.7599247,-1.02932 1.2377289,-1.26292 0.7625839,-0.37284 1.5533924,-0.37226 2.3173315,0.002 0.2534818,0.12408 0.413846,0.24666 0.70457,0.53856 l 0.3763934,0.37792 v -0.53497 c 0,-0.50406 0.00552,-0.53884 0.095604,-0.60193 0.1265173,-0.0886 0.21930797,-0.0845 0.30811517,0.0136 0.06729,0.0744 0.071958,0.30278 0.060438,2.95738 l -0.012486,2.8768 -0.1232818,0.32262 c -0.26549687,0.69479 -0.76503927,1.25397 -1.38229177,1.54731 -0.1892721,0.0899 -0.4312393,0.18401 -0.537705,0.20903 -0.2968498,0.0697 -0.8132493,0.0928 -1.0680637,0.0477 z m 1.1058368,-2.885 c 0.4660604,-0.16035 0.8138413,-0.42834 1.1007171,-0.8482 0.84109137,-1.23098 0.4342184,-2.96735 -0.8419085,-3.59293 -1.7041198,-0.83538 -3.5251263,0.74621 -3.1139656,2.70456 0.192235,0.91562 0.9433139,1.6834 1.7849905,1.82469 0.309141,0.0519 0.7745971,0.0136 1.0701665,-0.0881 z"
       id="path311" />
    <path
       style="fill:#6dc076;fill-opacity:1;stroke-width:0.0430165"
       d="m 1.8642081,153.23006 c -0.060481,-0.0605 -0.067597,-0.48808 -0.067597,-4.06198 0,-3.5739 0.00711,-4.0015 0.067597,-4.06198 0.079996,-0.08 0.2808778,-0.0891 0.3539637,-0.016 0.074846,0.0748 0.074846,8.08107 0,8.15591 -0.073086,0.0731 -0.2739677,0.064 -0.3539637,-0.016 z"
       id="path313" />
    <path
       style="fill:#6dc076;fill-opacity:1;stroke-width:0.0430165"
       d="m 6.3050481,153.22881 c -1.2275804,-0.33013 -2.0708938,-1.47564 -2.0688369,-2.8102 7.938e-4,-0.51484 0.08253,-0.86942 0.3079176,-1.33577 0.2419527,-0.50062 0.7694501,-1.03529 1.2489328,-1.26591 0.592211,-0.28484 1.1772029,-0.35148 1.7652783,-0.20107 0.5631341,0.14402 1.1213806,0.49393 1.4336379,0.89859 0.092936,0.12044 0.1834923,0.21981 0.2012363,0.22082 0.01774,10e-4 0.03226,-0.23714 0.03226,-0.52921 0,-0.45983 0.01055,-0.54058 0.07867,-0.60223 0.1045416,-0.0946 0.2038086,-0.0898 0.3084826,0.0148 0.08421,0.0842 0.08603,0.14339 0.08603,2.7865 0,2.96595 0.0065,2.89167 -0.251931,2.89167 -0.2014056,0 -0.2212466,-0.0586 -0.2212466,-0.65385 0,-0.30284 -0.01452,-0.54951 -0.03226,-0.54816 -0.01774,0.001 -0.1050397,0.098 -0.1939907,0.21478 -0.3141078,0.41238 -0.8907632,0.78457 -1.4281613,0.92177 -0.3195929,0.0816 -0.95787,0.0803 -1.266014,-0.003 z m 1.1782647,-0.46371 c 0.7419811,-0.1985 1.3372258,-0.77776 1.5930768,-1.5503 0.1377835,-0.41603 0.1552545,-1.00781 0.04257,-1.44187 -0.2686185,-1.03471 -1.1754371,-1.76711 -2.1879398,-1.76711 -0.9720059,0 -1.916154,0.79307 -2.1561295,1.81112 -0.1346314,0.57115 -0.04326,1.31683 0.2225503,1.81622 0.1517089,0.28502 0.6582336,0.79229 0.9417828,0.94317 0.4424076,0.23541 1.0788917,0.31322 1.5440894,0.18877 z"
       id="path315" />
    <path
       style="fill:#6dc076;fill-opacity:1;stroke-width:0.0430165"
       d="m 12.764432,153.16026 c -0.06003,-0.06 -0.0676,-0.37224 -0.0676,-2.78784 0,-2.11104 0.01204,-2.73556 0.05377,-2.78865 0.09301,-0.11832 0.233717,-0.13373 0.331177,-0.0363 0.0753,0.0753 0.08823,0.14251 0.08823,0.4585 v 0.37028 l 0.258532,-0.23936 c 0.334233,-0.30944 0.860696,-0.57053 1.27564,-0.63262 0.967484,-0.14478 1.987713,0.39301 2.423021,1.27725 0.237534,0.48249 0.256842,0.67577 0.257666,2.57919 7.15e-4,1.61681 -0.0042,1.72919 -0.07792,1.79593 -0.09202,0.0833 -0.269085,0.0934 -0.342894,0.0196 -0.03838,-0.0384 -0.05181,-0.4879 -0.05237,-1.75292 -8.2e-4,-1.85936 -0.02411,-2.10044 -0.241532,-2.49992 -0.167143,-0.3071 -0.50174,-0.62303 -0.829929,-0.78363 -0.270658,-0.13245 -0.304985,-0.1384 -0.799005,-0.1384 -0.479199,0 -0.533917,0.009 -0.76344,0.12137 -0.318461,0.15633 -0.683088,0.49081 -0.846599,0.7766 -0.247253,0.43215 -0.261174,0.56261 -0.261174,2.44767 0,1.09954 -0.01597,1.74428 -0.04453,1.79765 -0.05482,0.10244 -0.26513,0.11153 -0.361053,0.0156 z"
       id="path317" />
    <path
       style="fill:#6dc076;fill-opacity:1;stroke-width:0.0430165"
       d="m 21.875356,153.2677 c -0.989798,-0.2595 -1.748973,-0.97892 -2.066355,-1.95816 -0.09097,-0.28068 -0.112148,-0.43137 -0.114853,-0.81731 -0.0058,-0.82263 0.24452,-1.41983 0.849396,-2.0267 0.288695,-0.28965 0.41747,-0.38256 0.756568,-0.54587 0.659527,-0.31762 1.255954,-0.39941 1.926797,-0.26422 0.554193,0.11168 1.342451,0.52997 1.342451,0.71237 0,0.28613 -0.223171,0.32879 -0.554284,0.10597 -0.960758,-0.64654 -2.321319,-0.51029 -3.141951,0.31465 -0.482341,0.48487 -0.698931,1.01127 -0.697028,1.69406 0.0019,0.6902 0.263905,1.28815 0.766473,1.74941 0.505198,0.46368 1.108065,0.67152 1.841609,0.6349 0.504126,-0.0252 0.841317,-0.12907 1.226248,-0.37786 0.290801,-0.18795 0.383501,-0.20503 0.487741,-0.0898 0.168683,0.1864 0.0045,0.39661 -0.505325,0.64705 -0.630534,0.30973 -1.452973,0.39578 -2.117487,0.22156 z"
       id="path319" />
    <path
       style="fill:#6dc076;fill-opacity:1;stroke-width:0.0430157"
       d="m 27.932085,153.28351 c -0.12598,-0.0319 -0.387296,-0.13724 -0.5807,-0.2342 -1.193774,-0.59847 -1.804958,-1.97431 -1.468108,-3.30485 0.197194,-0.7789 0.786551,-1.5179 1.482089,-1.85839 0.827488,-0.40508 1.638044,-0.40398 2.451846,0.003 0.494131,0.24732 0.93989,0.6883 1.196254,1.18342 0.192964,0.37269 0.352279,0.90552 0.352279,1.17822 0,0.30902 0.110203,0.29667 -2.647863,0.29667 H 26.26122 l 0.03645,0.26885 c 0.07714,0.56892 0.283321,0.9794 0.697305,1.38822 0.455447,0.44976 0.973437,0.66582 1.596313,0.66582 0.746883,0 1.399791,-0.33353 1.847864,-0.94395 0.179559,-0.24462 0.25873,-0.28524 0.389225,-0.19973 0.218321,0.14305 0.134885,0.36067 -0.311591,0.81269 -0.302797,0.30657 -0.620227,0.51099 -1.033303,0.66544 -0.237918,0.089 -0.382671,0.11093 -0.806166,0.12239 -0.335194,0.009 -0.59649,-0.006 -0.745233,-0.0439 z m 2.892428,-3.37028 c -0.15866,-0.884 -0.963996,-1.66356 -1.880558,-1.82038 -0.790027,-0.13517 -1.649884,0.20499 -2.160667,0.85476 -0.191271,0.24332 -0.41545,0.71902 -0.4652,0.98713 l -0.02593,0.1398 h 2.280658 2.28066 z"
       id="path321" />
  </g>
</svg>
