<?xml version="1.0" encoding="UTF-8" standalone="no"?>
<!-- Created with Inkscape (http://www.inkscape.org/) -->

<svg
   xmlns:dc="http://purl.org/dc/elements/1.1/"
   xmlns:cc="http://creativecommons.org/ns#"
   xmlns:rdf="http://www.w3.org/1999/02/22-rdf-syntax-ns#"
   xmlns:svg="http://www.w3.org/2000/svg"
   xmlns="http://www.w3.org/2000/svg"
   xmlns:sodipodi="http://sodipodi.sourceforge.net/DTD/sodipodi-0.dtd"
   xmlns:inkscape="http://www.inkscape.org/namespaces/inkscape"
   width="146.83702"
   height="55.093369"
   viewBox="0 0 38.850627 14.576786"
   version="1.1"
   id="svg8613"
   inkscape:version="0.92.0 r15299"
   sodipodi:docname="glance.svg">
  <defs
     id="defs8607">
    <clipPath
       id="clipPath8004"
       clipPathUnits="userSpaceOnUse">
      <path
         inkscape:connector-curvature="0"
         id="path8002"
         d="m 22.8,643.45 h 109.377 v 40.57 H 22.8 Z" />
    </clipPath>
    <clipPath
       id="clipPath7952"
       clipPathUnits="userSpaceOnUse">
      <path
         inkscape:connector-curvature="0"
         id="path7950"
         d="m 22.8,643.45 h 109.378 v 40.57 H 22.8 Z" />
    </clipPath>
    <clipPath
       id="clipPath7940"
       clipPathUnits="userSpaceOnUse">
      <path
         inkscape:connector-curvature="0"
         id="path7938"
         d="m 22.8,643.45 h 109.377 v 40.57 H 22.8 Z" />
    </clipPath>
    <clipPath
       id="clipPath7928"
       clipPathUnits="userSpaceOnUse">
      <path
         inkscape:connector-curvature="0"
         id="path7926"
         d="m 22.8,643.45 h 109.378 v 40.57 H 22.8 Z" />
    </clipPath>
  </defs>
  <sodipodi:namedview
     id="base"
     pagecolor="#ffffff"
     bordercolor="#666666"
     borderopacity="1.0"
     inkscape:pageopacity="0.0"
     inkscape:pageshadow="2"
     inkscape:zoom="6.1507561"
     inkscape:cx="72.917865"
     inkscape:cy="27.046959"
     inkscape:document-units="mm"
     inkscape:current-layer="layer1"
     showgrid="false"
     fit-margin-top="0"
     fit-margin-left="0"
     fit-margin-right="0"
     fit-margin-bottom="0"
     units="px"
     inkscape:window-width="1280"
     inkscape:window-height="744"
     inkscape:window-x="-4"
     inkscape:window-y="-4"
     inkscape:window-maximized="1" />
  <metadata
     id="metadata8610">
    <rdf:RDF>
      <cc:Work
         rdf:about="">
        <dc:format>image/svg+xml</dc:format>
        <dc:type
           rdf:resource="http://purl.org/dc/dcmitype/StillImage" />
        <dc:title></dc:title>
      </cc:Work>
    </rdf:RDF>
  </metadata>
  <g
     inkscape:label="Layer 1"
     inkscape:groupmode="layer"
     id="layer1"
     transform="translate(6.8196372,-141.41273)">
    <g
       id="g8795"
       style="fill:#1d8fc4;fill-opacity:1"
       transform="translate(0.13229151,-0.13228723)">
      <path
         d="m -1.841061,150.71107 c 0,-1.30704 -0.9831916,-2.33821 -2.1942777,-2.33821 -1.1990917,0 -2.1826361,1.03117 -2.1826361,2.33821 0,1.31904 0.9835444,2.3622 2.1826361,2.3622 1.2110861,0 2.1942777,-1.04316 2.1942777,-2.3622 m 0.5753805,2.49414 c 0,1.52294 -1.2350749,2.75802 -2.7696582,2.75802 -0.4318,0 -0.8396111,-0.10795 -1.2230806,-0.27588 -0.1199444,-0.084 -0.1919111,-0.25188 -0.1199444,-0.38382 0.071967,-0.15557 0.2395361,-0.21555 0.3834694,-0.13159 0.2998611,0.14359 0.5997222,0.21555 0.9595556,0.21555 1.2230805,0 2.1942777,-0.9712 2.1942777,-2.18228 v -0.71932 c -0.4917722,0.70732 -1.2950472,1.15112 -2.1942777,1.15112 -1.5349361,0 -2.7580166,-1.30704 -2.7580166,-2.92594 0,-1.58291 1.2230805,-2.91394 2.7580166,-2.91394 0.8992305,0 1.7025055,0.45578 2.1942777,1.15111 v -0.86325 c 0,-0.15593 0.1319389,-0.28786 0.2998611,-0.28786 0.1439333,0 0.2755194,0.13193 0.2755194,0.28786 z"
         style="fill:#1d8fc4;fill-opacity:1;fill-rule:nonzero;stroke:none;stroke-width:0.35277778"
         id="path7932"
         inkscape:connector-curvature="0" />
      <path
         d="m -1.841061,150.71107 c 0,-1.30704 -0.9831916,-2.33821 -2.1942777,-2.33821 -1.1990917,0 -2.1826361,1.03117 -2.1826361,2.33821 0,1.31904 0.9835444,2.3622 2.1826361,2.3622 1.2110861,0 2.1942777,-1.04316 2.1942777,-2.3622 z m 0.5753805,2.49414 c 0,1.52294 -1.2350749,2.75802 -2.7696582,2.75802 -0.4318,0 -0.8396111,-0.10795 -1.2230806,-0.27588 -0.1199444,-0.084 -0.1919111,-0.25188 -0.1199444,-0.38382 0.071967,-0.15557 0.2395361,-0.21555 0.3834694,-0.13159 0.2998611,0.14359 0.5997222,0.21555 0.9595556,0.21555 1.2230805,0 2.1942777,-0.9712 2.1942777,-2.18228 v -0.71932 c -0.4917722,0.70732 -1.2950472,1.15112 -2.1942777,1.15112 -1.5349361,0 -2.7580166,-1.30704 -2.7580166,-2.92594 0,-1.58291 1.2230805,-2.91394 2.7580166,-2.91394 0.8992305,0 1.7025055,0.45578 2.1942777,1.15111 v -0.86325 c 0,-0.15593 0.1319389,-0.28786 0.2998611,-0.28786 0.1439333,0 0.2755194,0.13193 0.2755194,0.28786 z"
         style="fill:#1d8fc4;fill-opacity:1;stroke:#ffffff;stroke-width:0.05256389;stroke-linecap:butt;stroke-linejoin:miter;stroke-miterlimit:10;stroke-dasharray:none;stroke-opacity:1"
         id="path7944"
         inkscape:connector-curvature="0" />
      <path
         d="m 1.6005331,145.5669 c 0,-0.15593 0.1319389,-0.28787 0.2878667,-0.28787 0.1679222,0 0.2998611,0.13194 0.2998611,0.28787 v 7.81826 c 0,0.15593 -0.1319389,0.28787 -0.2998611,0.28787 -0.1559278,0 -0.2878667,-0.13194 -0.2878667,-0.28787 z"
         style="fill:#1d8fc4;fill-opacity:1;fill-rule:nonzero;stroke:none;stroke-width:0.35277778"
         id="path7956"
         inkscape:connector-curvature="0" />
      <path
         d="m 1.6005331,145.5669 c 0,-0.15593 0.1319389,-0.28787 0.2878667,-0.28787 0.1679222,0 0.2998611,0.13194 0.2998611,0.28787 v 7.81826 c 0,0.15593 -0.1319389,0.28787 -0.2998611,0.28787 -0.1559278,0 -0.2878667,-0.13194 -0.2878667,-0.28787 z"
         style="fill:#1d8fc4;fill-opacity:1;stroke:#ffffff;stroke-width:0.05256389;stroke-linecap:butt;stroke-linejoin:miter;stroke-miterlimit:10;stroke-dasharray:none;stroke-opacity:1"
         id="path7960"
         inkscape:connector-curvature="0" />
      <path
         d="m 8.8552315,150.73509 c 0,-1.31904 -0.9951861,-2.37419 -2.2062722,-2.37419 -1.1990916,0 -2.2066249,1.05515 -2.2066249,2.37419 0,1.31904 1.0075333,2.3622 2.2066249,2.3622 1.2110861,0 2.2062722,-1.04316 2.2062722,-2.3622 m 0.5757333,-2.65007 v 5.30014 c 0,0.15592 -0.1319389,0.28786 -0.2878666,0.28786 -0.1559278,0 -0.2878667,-0.13194 -0.2878667,-0.28786 v -0.87525 c -0.5037667,0.69533 -1.3070416,1.16311 -2.2062722,1.16311 -1.5469305,0 -2.7820055,-1.33103 -2.7820055,-2.93793 0,-1.6069 1.235075,-2.93793 2.7820055,-2.93793 0.8992306,0 1.7025055,0.45579 2.2062722,1.15111 v -0.86325 c 0,-0.16792 0.1319389,-0.28786 0.2878667,-0.28786 0.1559277,0 0.2878666,0.11994 0.2878666,0.28786"
         style="fill:#1d8fc4;fill-opacity:1;fill-rule:nonzero;stroke:none;stroke-width:0.35277778"
         id="path7964"
         inkscape:connector-curvature="0" />
      <path
         d="m 8.8552315,150.73509 c 0,-1.31904 -0.9951861,-2.37419 -2.2062722,-2.37419 -1.1990916,0 -2.2066249,1.05515 -2.2066249,2.37419 0,1.31904 1.0075333,2.3622 2.2066249,2.3622 1.2110861,0 2.2062722,-1.04316 2.2062722,-2.3622 z m 0.5757333,-2.65007 v 5.30014 c 0,0.15592 -0.1319389,0.28786 -0.2878666,0.28786 -0.1559278,0 -0.2878667,-0.13194 -0.2878667,-0.28786 v -0.87525 c -0.5037667,0.69533 -1.3070416,1.16311 -2.2062722,1.16311 -1.5469305,0 -2.7820055,-1.33103 -2.7820055,-2.93793 0,-1.6069 1.235075,-2.93793 2.7820055,-2.93793 0.8992306,0 1.7025055,0.45579 2.2062722,1.15111 v -0.86325 c 0,-0.16792 0.1319389,-0.28786 0.2878667,-0.28786 0.1559277,0 0.2878666,0.11994 0.2878666,0.28786 z"
         style="fill:#1d8fc4;fill-opacity:1;stroke:#ffffff;stroke-width:0.05256389;stroke-linecap:butt;stroke-linejoin:miter;stroke-miterlimit:10;stroke-dasharray:none;stroke-opacity:1"
         id="path7968"
         inkscape:connector-curvature="0" />
      <path
         d="m 16.002086,150.19548 c 0,-0.99519 -0.803275,-1.81081 -1.810808,-1.81081 -0.995186,0 -1.798461,0.81562 -1.82245,1.81081 v 3.18982 0.048 c -0.012,0.0476 -0.02399,0.0956 -0.05997,0.13159 -0.04798,0.072 -0.131939,0.10795 -0.2159,0.10795 h -0.07197 c -0.08396,-0.024 -0.155928,-0.084 -0.191911,-0.15593 -0.012,-0.012 -0.012,-0.024 -0.012,-0.036 0,-0.012 -0.01199,-0.024 -0.01199,-0.024 v -0.0716 -3.18982 -0.096 -2.00236 c 0,-0.15593 0.119944,-0.28787 0.287867,-0.28787 0.155927,0 0.275872,0.13194 0.275872,0.28787 v 0.56338 c 0.431447,-0.5154 1.091141,-0.85125 1.82245,-0.85125 1.319389,0 2.386541,1.07915 2.386541,2.38619 v 3.18982 c 0,0.16757 -0.131939,0.28751 -0.287866,0.28751 -0.155928,0 -0.287867,-0.11994 -0.287867,-0.28751 z"
         style="fill:#1d8fc4;fill-opacity:1;fill-rule:nonzero;stroke:none;stroke-width:0.35277778"
         id="path7972"
         inkscape:connector-curvature="0" />
      <path
         d="m 16.002086,150.19548 c 0,-0.99519 -0.803275,-1.81081 -1.810808,-1.81081 -0.995186,0 -1.798461,0.81562 -1.82245,1.81081 v 3.18982 0.048 c -0.012,0.0476 -0.02399,0.0956 -0.05997,0.13159 -0.04798,0.072 -0.131939,0.10795 -0.2159,0.10795 h -0.07197 c -0.08396,-0.024 -0.155928,-0.084 -0.191911,-0.15593 -0.012,-0.012 -0.012,-0.024 -0.012,-0.036 0,-0.012 -0.01199,-0.024 -0.01199,-0.024 v -0.0716 -3.18982 -0.096 -2.00236 c 0,-0.15593 0.119944,-0.28787 0.287867,-0.28787 0.155927,0 0.275872,0.13194 0.275872,0.28787 v 0.56338 c 0.431447,-0.5154 1.091141,-0.85125 1.82245,-0.85125 1.319389,0 2.386541,1.07915 2.386541,2.38619 v 3.18982 c 0,0.16757 -0.131939,0.28751 -0.287866,0.28751 -0.155928,0 -0.287867,-0.11994 -0.287867,-0.28751 z"
         style="fill:#1d8fc4;fill-opacity:1;stroke:#ffffff;stroke-width:0.05256389;stroke-linecap:butt;stroke-linejoin:miter;stroke-miterlimit:10;stroke-dasharray:none;stroke-opacity:1"
         id="path7976"
         inkscape:connector-curvature="0" />
      <path
         d="m 18.736255,150.72306 c 0,-1.63089 1.343025,-2.92594 3.021894,-2.92594 0.695325,0 1.35502,0.23989 1.870428,0.6477 0.119945,0.084 0.143933,0.26388 0.03598,0.39582 -0.09596,0.1076 -0.263525,0.14358 -0.395463,0.0476 -0.419806,-0.33549 -0.947562,-0.5274 -1.510948,-0.5274 -1.367013,0 -2.446161,1.06715 -2.446161,2.3622 0,1.31904 1.079148,2.37419 2.446161,2.37419 0.563386,0 1.091142,-0.19191 1.510948,-0.51576 0.131938,-0.0956 0.299508,-0.06 0.395463,0.048 0.10795,0.13229 0.08396,0.31186 -0.05997,0.41981 -0.491419,0.38382 -1.151114,0.62371 -1.846439,0.62371 -1.678869,0 -3.021894,-1.29505 -3.021894,-2.94993"
         style="fill:#1d8fc4;fill-opacity:1;fill-rule:nonzero;stroke:none;stroke-width:0.35277778"
         id="path7980"
         inkscape:connector-curvature="0" />
      <path
         d="m 18.736255,150.72306 c 0,-1.63089 1.343025,-2.92594 3.021894,-2.92594 0.695325,0 1.35502,0.23989 1.870428,0.6477 0.119945,0.084 0.143933,0.26388 0.03598,0.39582 -0.09596,0.1076 -0.263525,0.14358 -0.395463,0.0476 -0.419806,-0.33549 -0.947562,-0.5274 -1.510948,-0.5274 -1.367013,0 -2.446161,1.06715 -2.446161,2.3622 0,1.31904 1.079148,2.37419 2.446161,2.37419 0.563386,0 1.091142,-0.19191 1.510948,-0.51576 0.131938,-0.0956 0.299508,-0.06 0.395463,0.048 0.10795,0.13229 0.08396,0.31186 -0.05997,0.41981 -0.491419,0.38382 -1.151114,0.62371 -1.846439,0.62371 -1.678869,0 -3.021894,-1.29505 -3.021894,-2.94993 z"
         style="fill:#1d8fc4;fill-opacity:1;stroke:#ffffff;stroke-width:0.05256389;stroke-linecap:butt;stroke-linejoin:miter;stroke-miterlimit:10;stroke-dasharray:none;stroke-opacity:1"
         id="path7984"
         inkscape:connector-curvature="0" />
      <path
         d="m 26.015118,150.27941 h 4.44888 c -0.191911,-1.10314 -1.127125,-1.90641 -2.206624,-1.90641 -1.103137,0 -2.026356,0.79128 -2.242256,1.90641 m -0.611717,0.46778 c 0,-1.63089 1.271411,-2.94992 2.853973,-2.94992 1.510947,0 2.710038,1.19909 2.829983,2.73402 v 0.012 0.036 c 0,0.15593 -0.131939,0.26388 -0.287867,0.26388 h -4.820355 c 0.05997,1.28305 1.067152,2.25425 2.278239,2.25425 0.779638,0 1.498952,-0.40781 1.894769,-1.06715 0.08396,-0.14394 0.263878,-0.16793 0.383822,-0.096 0.131586,0.096 0.179564,0.26388 0.09596,0.40746 -0.503767,0.80363 -1.379361,1.33138 -2.374547,1.33138 -1.582562,0 -2.853973,-1.31939 -2.853973,-2.92594"
         style="fill:#1d8fc4;fill-opacity:1;fill-rule:nonzero;stroke:none;stroke-width:0.35277778"
         id="path7988"
         inkscape:connector-curvature="0" />
      <path
         d="m 26.015118,150.27941 h 4.44888 c -0.191911,-1.10314 -1.127125,-1.90641 -2.206624,-1.90641 -1.103137,0 -2.026356,0.79128 -2.242256,1.90641 z m -0.611717,0.46778 c 0,-1.63089 1.271411,-2.94992 2.853973,-2.94992 1.510947,0 2.710038,1.19909 2.829983,2.73402 v 0.012 0.036 c 0,0.15593 -0.131939,0.26388 -0.287867,0.26388 h -4.820355 c 0.05997,1.28305 1.067152,2.25425 2.278239,2.25425 0.779638,0 1.498952,-0.40781 1.894769,-1.06715 0.08396,-0.14394 0.263878,-0.16793 0.383822,-0.096 0.131586,0.096 0.179564,0.26388 0.09596,0.40746 -0.503767,0.80363 -1.379361,1.33138 -2.374547,1.33138 -1.582562,0 -2.853973,-1.31939 -2.853973,-2.92594 z"
         style="fill:#1d8fc4;fill-opacity:1;stroke:#ffffff;stroke-width:0.05256389;stroke-linecap:butt;stroke-linejoin:miter;stroke-miterlimit:10;stroke-dasharray:none;stroke-opacity:1"
         id="path7992"
         inkscape:connector-curvature="0" />
      <path
         d="m 31.5284,146.25019 c -0.08996,-0.0406 -9.108722,-4.05236 -18.88243,-4.05236 -9.777236,0 -18.7917664,4.01179 -18.8817247,4.05236 l -0.2032,-0.4505 c 0.022931,-0.0102 2.315986,-1.03752 5.79543319,-2.04928 3.21133601,-0.93345 8.12411931,-2.04682 13.28949151,-2.04682 5.166078,0 10.078508,1.11337 13.289844,2.04682 3.479447,1.01176 5.772855,2.03905 5.795786,2.04928 z"
         style="fill:#1d8fc4;fill-opacity:1;fill-rule:nonzero;stroke:none;stroke-width:0.35277778"
         id="path7996"
         inkscape:connector-curvature="0" />
      <path
         d="m 31.5284,146.25019 c -0.08996,-0.0406 -9.108722,-4.05236 -18.88243,-4.05236 -9.777236,0 -18.7917664,4.01179 -18.8817247,4.05236 l -0.2032,-0.4505 c 0.022931,-0.0102 2.315986,-1.03752 5.79543319,-2.04928 3.21133601,-0.93345 8.12411931,-2.04682 13.28949151,-2.04682 5.166078,0 10.078508,1.11337 13.289844,2.04682 3.479447,1.01176 5.772855,2.03905 5.795786,2.04928 z"
         style="fill:#1d8fc4;fill-opacity:1;stroke:#ffffff;stroke-width:0.05256389;stroke-linecap:butt;stroke-linejoin:miter;stroke-miterlimit:10;stroke-dasharray:none;stroke-opacity:1"
         id="path8008"
         inkscape:connector-curvature="0" />
    </g>
  </g>
</svg>
